<?xml version="1.0" ?><!DOCTYPE svg  PUBLIC '-//W3C//DTD SVG 1.1//EN'  'http://www.w3.org/Graphics/SVG/1.1/DTD/svg11.dtd'><svg viewBox="0 0 512 512" xmlns="http://www.w3.org/2000/svg" xmlns:xlink="http://www.w3.org/1999/xlink"><style>:root>svg{display:none}:root>svg:target{display:block}</style><svg viewBox="0 0 211.405 175.066" id="1485969399-twitersocialnetworkbrandlogo_78853" xmlns="http://www.w3.org/2000/svg"><path d="M209.647 20.455a4.006 4.006 0 00-4.658.123c-1.795 1.361-4.717 2.441-7.862 3.273 8.19-9.175 8.366-15.302 8.278-16.713a4 4 0 00-6.344-2.984c-9.21 6.696-18.386 8.11-23.844 8.252C166.843 4.392 155.963 0 144.39 0c-24.783 0-44.945 20.432-44.945 45.545 0 2.158.15 4.316.451 6.451-42.951-.486-77.83-41.64-78.19-42.07a4 4 0 00-6.537.564c-12.36 21.444-4.09 40.278 3.471 51.06-1.338-.712-2.422-1.415-3.068-1.892a4.004 4.004 0 00-4.154-.38 4.004 4.004 0 00-2.235 3.524C8.848 83.234 18.684 94.94 27.93 101.41a4.033 4.033 0 00-3.34 1.272 4.002 4.002 0 00-.884 3.876c6.387 20.909 22.072 28.012 32.053 30.422-20.522 15.975-50.72 10.834-51.053 10.776a4.001 4.001 0 00-3.133 7.117c21.66 16.531 47.566 20.193 66.281 20.193 14.155-.002 24.2-2.098 25.16-2.306 94.791-22.463 97.46-109.292 97.243-123.522 17.794-16.549 20.576-22.852 21.005-24.41a4.002 4.002 0 00-1.615-4.373zm-26.152 24.14a4.007 4.007 0 00-1.282 3.211c.252 3.842 5.1 94.387-90.968 117.153-.436.092-38.623 8.06-71.729-8.34 13.987-.389 34.043-4.053 48.016-19.74a4 4 0 00-2.986-6.66h-.041c-.2.127-21.206-.024-30.82-20.006 3.872.219 8.648-.02 12.45-1.772a4 4 0 00-.851-7.547c-1.076-.226-24.459-5.455-27.73-30.964 3.548 1.55 8.085 2.82 12.577 2.134a3.998 3.998 0 003.243-2.84 4.005 4.005 0 00-1.219-4.138c-1-.871-22.961-20.389-12.549-45.559C30.91 31.387 64.391 62.21 104.954 59.88a4.004 4.004 0 003.648-4.969 38.518 38.518 0 01-1.158-9.365C107.444 24.842 124.018 8 144.389 8c9.965 0 19.313 3.976 26.317 11.2a4 4 0 002.803 1.214c4.238.058 11.208-.44 19.08-3.596-2.272 2.826-5.608 6.217-10.516 10.07a4.003 4.003 0 00-1.254 4.604c.644 1.646 2.307 2.686 4.045 2.53.931-.075 5.685-.495 11.057-1.657-2.926 3.156-6.938 7.182-12.426 12.23z"/></svg><svg viewBox="0 0 512 512" id="4202107facebookfblogosocialsocialmedia-115710_115591" xmlns="http://www.w3.org/2000/svg"><path d="M375.301 181.236h-89.475v-59.813c0-16.51 13.359-29.908 29.828-29.908h29.824V16.75h-59.652c-49.42 0-89.475 40.162-89.475 89.718v74.768h-59.654V256h59.654v239.25h89.475V256h59.652l29.823-74.764zm0 0" fill="#1b80e4"/></svg><svg viewBox="0 0 512 512" id="instagram_f_icon-icons.com_65485" xmlns="http://www.w3.org/2000/svg"><path d="M505 257c0 34.8-.7 69.7.2 104.5 1.5 61.6-37.2 109.2-86.5 130.4-19.8 8.5-40.6 13-62.1 13-67.3.1-134.7 1-202-.3-50.7-1-92.4-22.2-122.3-64-15.7-22-23.2-47-23.2-74.1v-215c0-58.5 28.5-99.4 79.1-126C110.2 14 134.1 9.1 159 9c65.3 0 130.7-.4 196 .2 50.7.4 93 19.8 124.2 60.6 17.4 22.8 25.8 49 25.8 77.8V257zm-459 0v110c0 16.4 3.8 31.8 12.3 45.7 22.3 36.5 56 54.3 97.8 55 67.1 1 134.3.4 201.5.2 16.5 0 32.5-3.4 47.4-10.5 40.6-19.4 63.3-50.3 63.1-96.7-.4-71-.1-142-.1-213 0-20.1-5.7-38.5-17.6-54.7-23-31.1-54.8-46.4-92.8-46.8-67-.8-134-.3-201-.2-14.3 0-28.1 2.9-41.5 7.9-36.8 13.7-71 48.4-69.4 99.5 1.2 34.6.3 69.1.3 103.6z"/><path d="M257.6 363c-64.5 0-116.5-51.4-116.6-115.4-.1-63 52.3-114.6 116.4-114.6 64.3-.1 116.5 51.4 116.6 114.9 0 63.4-52.1 115-116.4 115.1zm0-37c43.9 0 79.5-35.1 79.4-78.3-.1-42.8-35.7-77.8-79.4-77.8-43.9 0-79.7 34.9-79.7 78 .1 43.2 35.8 78.2 79.7 78.1zM387.5 98c13.5 0 24.5 11.5 24.5 25.6-.1 14.1-11.2 25.5-24.7 25.4-13.3-.1-24.2-11.5-24.2-25.3C363 109.6 374 98 387.5 98z"/></svg></svg>